{"title":"Blade.Runner.1982.Directors.Cut.720p.BRRip.XviD.AC3-PsychoLogic","uid":6639359,"size":3222364323,"categoryP":"video","categoryS":"hd___movies","magnet":"?xt=urn:btih:3f1cba06265b164082b20f81c40551c3d6c1002f&amp;dn=Blade.Runner.1982.Directors.Cut.720p.BRRip.XviD.AC3-PsychoLogic&amp;tr=udp%3A%2F%2Ftracker.openbittorrent.com%3A80&amp;tr=udp%3A%2F%2Fopen.demonii.com%3A1337&amp;tr=udp%3A%2F%2Ftracker.coppersurfer.tk%3A6969&amp;tr=udp%3A%2F%2Fexodus.desync.com%3A6969","seeders":1,"leechers":1,"uploader":"PsychoLogic","files":7,"time":1314698303,"description":"Release Information:\n\nBlade.Runner.1982.Directors.Cut.720p.BRRip.XviD.AC3-PsychoLogic\n\nSource                           : Blade.Runner.1982.DIRECTORS.CUT.720p.BluRay.x264-SEVENTWENTY\nSubtitles                        : Dutch, English, Greek\nLanguage                         : English\nEncoded By                       : PsychoLogic\nSample Included                  : Yes\n\nMovie Information                : http://www.imdb.com/title/tt0083658/\nGenre                            : Drama | Sci-Fi | Thriller \nDirector                         : Ridley Scott\nCast                             : Harrison Ford, Rutger Hauer and Sean Young\nPlot                             : Deckard, a blade runner, has to track down and terminate 4 replicants who hijacked a ship in space and have returned to earth seeking their maker. \n\nGeneral\nFormat                           : AVI\nFormat/Info                      : Audio Video Interleave\nFormat profile                   : OpenDML\nFile size                        : 2.97 GiB\nDuration                         : 1h 56mn\nOverall bit rate                 : 3 650 Kbps\nWriting application              : VirtualDubMod 1.5.10.2 (build 2542/release)\nWriting library                  : VirtualDubMod build 2542/release\n\nVideo\nID                               : 0\nFormat                           : MPEG-4 Visual\nFormat profile                   : Advanced Simple@L5\nFormat settings, BVOP            : 2\nFormat settings, QPel            : No\nFormat settings, GMC             : No warppoints\nFormat settings, Matrix          : Default (H.263)\nCodec ID                         : XVID\nCodec ID/Hint                    : XviD\nDuration                         : 1h 56mn\nBit rate                         : 2 999 Kbps\nWidth                            : 1 280 pixels\nHeight                           : 528 pixels\nDisplay aspect ratio             : 2.40:1\nFrame rate                       : 23.976 fps\nColor space                      : YUV\nChroma subsampling               : 4:2:0\nBit depth                        : 8 bits\nScan type                        : Progressive\nCompression mode                 : Lossy\nBits/(Pixel*Frame)               : 0.185\nStream size                      : 2.44 GiB (82%)\nWriting library                  : XviD 1.2.1 (UTC 2008-12-04)\n\nAudio\nID                               : 1\nFormat                           : AC-3\nFormat/Info                      : Audio Coding 3\nMode extension                   : CM (complete main)\nCodec ID                         : 2000\nDuration                         : 1h 56mn\nBit rate mode                    : Constant\nBit rate                         : 640 Kbps\nChannel(s)                       : 6 channels\nChannel positions                : Front: L C R, Side: L R, LFE\nSampling rate                    : 48.0 KHz\nBit depth                        : 16 bits\nCompression mode                 : Lossy\nStream size                      : 534 MiB (18%)\nAlignment                        : Split accross interleaves\nInterleave, duration             : 42 ms (1.00 video frame)\nInterleave, preload duration     : 500 ms\n\n","torrent":{"xt":"urn:btih:3f1cba06265b164082b20f81c40551c3d6c1002f","amp;dn":"Blade.Runner.1982.Directors.Cut.720p.BRRip.XviD.AC3-PsychoLogic","amp;tr":["udp%3A%2F%2Ftracker.openbittorrent.com%3A80","udp%3A%2F%2Fopen.demonii.com%3A1337","udp%3A%2F%2Ftracker.coppersurfer.tk%3A6969","udp%3A%2F%2Fexodus.desync.com%3A6969"],"infoHash":"3f1cba06265b164082b20f81c40551c3d6c1002f","infoHashBuffer":{"type":"Buffer","data":[63,28,186,6,38,91,22,64,130,178,15,129,196,5,81,195,214,193,0,47]},"announce":[],"urlList":[]}}